<svg width="32" height="27" viewBox="0 0 32 27" fill="none" xmlns="http://www.w3.org/2000/svg">
<path d="M7 12.6562H27C27.2652 12.6562 27.5196 12.7451 27.7071 12.9034C27.8946 13.0616 28 13.2762 28 13.5C28 13.7238 27.8946 13.9384 27.7071 14.0966C27.5196 14.2549 27.2652 14.3438 27 14.3438H7C6.73478 14.3438 6.48043 14.2549 6.29289 14.0966C6.10536 13.9384 6 13.7238 6 13.5C6 13.2762 6.10536 13.0616 6.29289 12.9034C6.48043 12.7451 6.73478 12.6562 7 12.6562Z" fill="black"/>
<path d="M7.41396 13.5L15.708 20.4963C15.8957 20.6548 16.0012 20.8697 16.0012 21.0937C16.0012 21.3178 15.8957 21.5327 15.708 21.6911C15.5202 21.8495 15.2655 21.9385 15 21.9385C14.7344 21.9385 14.4797 21.8495 14.292 21.6911L5.29196 14.0973C5.19883 14.019 5.12494 13.9259 5.07453 13.8233C5.02412 13.7208 4.99817 13.6109 4.99817 13.5C4.99817 13.389 5.02412 13.2791 5.07453 13.1766C5.12494 13.0741 5.19883 12.981 5.29196 12.9026L14.292 5.30884C14.4797 5.15041 14.7344 5.0614 15 5.0614C15.2655 5.0614 15.5202 5.15041 15.708 5.30884C15.8957 5.46728 16.0012 5.68216 16.0012 5.90622C16.0012 6.13028 15.8957 6.34516 15.708 6.50359L7.41396 13.5Z" fill="black"/>
</svg>
