<svg width="24" height="21" viewBox="0 0 24 21" fill="none" xmlns="http://www.w3.org/2000/svg">
<path fill-rule="evenodd" clip-rule="evenodd" d="M21.6 10.5C21.6 12.7278 20.5886 14.8644 18.7882 16.4397C16.9879 18.015 14.5461 18.9 12 18.9C9.45395 18.9 7.01215 18.015 5.2118 16.4397C3.41145 14.8644 2.40002 12.7278 2.40002 10.5C2.40002 8.27219 3.41145 6.13561 5.2118 4.56031C7.01215 2.985 9.45395 2.10001 12 2.10001C14.5461 2.10001 16.9879 2.985 18.7882 4.56031C20.5886 6.13561 21.6 8.27219 21.6 10.5ZM10.728 7.28701C10.6444 7.36016 10.5452 7.41818 10.436 7.45777C10.3267 7.49736 10.2097 7.51773 10.0914 7.51773C9.9732 7.51773 9.85613 7.49736 9.7469 7.45777C9.63767 7.41818 9.53842 7.36016 9.45482 7.28701C9.37123 7.21386 9.30491 7.12702 9.25967 7.03144C9.21442 6.93587 9.19114 6.83343 9.19114 6.72998C9.19114 6.62653 9.21442 6.5241 9.25967 6.42852C9.30491 6.33295 9.37123 6.24611 9.45482 6.17296C9.84626 5.83039 10.3227 5.57143 10.8471 5.41622C11.3716 5.261 11.9299 5.21371 12.4786 5.27803C13.0273 5.34234 13.5517 5.51652 14.0109 5.78703C14.4702 6.05754 14.852 6.41709 15.1266 6.83772C15.4012 7.25835 15.5612 7.72872 15.5942 8.21228C15.6272 8.69584 15.5324 9.17954 15.3169 9.62579C15.1015 10.072 14.7714 10.4688 14.3522 10.7852C13.933 11.1017 13.4361 11.3292 12.9 11.4503V11.8125C12.9 12.0214 12.8052 12.2217 12.6364 12.3694C12.4676 12.517 12.2387 12.6 12 12.6C11.7613 12.6 11.5324 12.517 11.3636 12.3694C11.1948 12.2217 11.1 12.0214 11.1 11.8125V11.2875C11.1 10.5315 11.784 10.0569 12.3972 9.93616C12.6697 9.88252 12.9241 9.77415 13.1404 9.61963C13.3567 9.46511 13.529 9.26866 13.6436 9.04583C13.7582 8.823 13.8119 8.5799 13.8006 8.33576C13.7893 8.09161 13.7132 7.85312 13.5784 7.63914C13.4436 7.42516 13.2537 7.24157 13.0238 7.10287C12.7939 6.96418 12.5303 6.8742 12.2537 6.84004C11.9772 6.80588 11.6954 6.82848 11.4306 6.90605C11.1658 6.98363 10.9253 7.11405 10.728 7.28701ZM12 15.75C12.3183 15.75 12.6235 15.6394 12.8486 15.4425C13.0736 15.2456 13.2 14.9785 13.2 14.7C13.2 14.4215 13.0736 14.1545 12.8486 13.9575C12.6235 13.7606 12.3183 13.65 12 13.65C11.6818 13.65 11.3765 13.7606 11.1515 13.9575C10.9265 14.1545 10.8 14.4215 10.8 14.7C10.8 14.9785 10.9265 15.2456 11.1515 15.4425C11.3765 15.6394 11.6818 15.75 12 15.75Z" fill="black"/>
</svg>
