<svg width="50" height="50" viewBox="0 0 50 50" fill="none" xmlns="http://www.w3.org/2000/svg">
<path d="M34.375 22.9167C37.8268 22.9167 40.625 20.1185 40.625 16.6667C40.625 13.215 37.8268 10.4167 34.375 10.4167C30.9232 10.4167 28.125 13.215 28.125 16.6667C28.125 20.1185 30.9232 22.9167 34.375 22.9167Z" fill="#37474F"/>
<path d="M15.625 22.9167C19.0768 22.9167 21.875 20.1185 21.875 16.6667C21.875 13.215 19.0768 10.4167 15.625 10.4167C12.1732 10.4167 9.375 13.215 9.375 16.6667C9.375 20.1185 12.1732 22.9167 15.625 22.9167Z" fill="#37474F"/>
<path d="M48.6458 26.0418L32.7083 29.1668H17.3958L1.45834 26.0418L5.93751 17.8127C7.08334 15.8335 9.16668 14.5835 11.4583 14.5835H38.75C41.0417 14.5835 43.125 15.8335 44.2708 17.8127L48.6458 26.0418Z" fill="#37474F"/>
<path d="M39.5834 41.6668C45.3363 41.6668 50 37.0031 50 31.2502C50 25.4972 45.3363 20.8335 39.5834 20.8335C33.8304 20.8335 29.1667 25.4972 29.1667 31.2502C29.1667 37.0031 33.8304 41.6668 39.5834 41.6668Z" fill="#37474F"/>
<path d="M10.4167 41.6668C16.1696 41.6668 20.8333 37.0031 20.8333 31.2502C20.8333 25.4972 16.1696 20.8335 10.4167 20.8335C4.6637 20.8335 0 25.4972 0 31.2502C0 37.0031 4.6637 41.6668 10.4167 41.6668Z" fill="#37474F"/>
<path d="M25 34.3752C27.8765 34.3752 30.2084 32.0433 30.2084 29.1668C30.2084 26.2903 27.8765 23.9585 25 23.9585C22.1235 23.9585 19.7917 26.2903 19.7917 29.1668C19.7917 32.0433 22.1235 34.3752 25 34.3752Z" fill="#37474F"/>
<path d="M25 31.2499C26.1506 31.2499 27.0834 30.3172 27.0834 29.1666C27.0834 28.016 26.1506 27.0833 25 27.0833C23.8494 27.0833 22.9167 28.016 22.9167 29.1666C22.9167 30.3172 23.8494 31.2499 25 31.2499Z" fill="#546E7A"/>
<path d="M39.5834 38.5416C43.6104 38.5416 46.875 35.277 46.875 31.2499C46.875 27.2228 43.6104 23.9583 39.5834 23.9583C35.5563 23.9583 32.2917 27.2228 32.2917 31.2499C32.2917 35.277 35.5563 38.5416 39.5834 38.5416Z" fill="#AA00FF"/>
<path d="M10.4167 38.5416C14.4437 38.5416 17.7083 35.277 17.7083 31.2499C17.7083 27.2228 14.4437 23.9583 10.4167 23.9583C6.38959 23.9583 3.125 27.2228 3.125 31.2499C3.125 35.277 6.38959 38.5416 10.4167 38.5416Z" fill="#AA00FF"/>
<path d="M43.4375 28.8541C42.3958 27.7083 41.0417 27.0833 39.5833 27.0833C38.125 27.0833 36.6667 27.7083 35.7292 28.8541C35.3125 29.2708 35.4167 29.8958 35.8333 30.3124C36.25 30.7291 36.875 30.6249 37.2917 30.2083C38.5417 28.8541 40.7292 28.8541 41.9792 30.2083C42.1875 30.4166 42.5 30.5208 42.7083 30.5208C42.9167 30.5208 43.2292 30.4166 43.4375 30.2083C43.8542 29.8958 43.8542 29.2708 43.4375 28.8541ZM10.4167 27.0833C8.95832 27.0833 7.49999 27.7083 6.56249 28.8541C6.14582 29.2708 6.24999 29.8958 6.66666 30.3124C7.08332 30.7291 7.70832 30.6249 8.12499 30.2083C9.37499 28.8541 11.5625 28.8541 12.8125 30.2083C13.0208 30.4166 13.3333 30.5208 13.5417 30.5208C13.75 30.5208 14.0625 30.4166 14.2708 30.2083C14.6875 29.7916 14.6875 29.1666 14.375 28.7499C13.3333 27.7083 11.875 27.0833 10.4167 27.0833Z" fill="#CE93D8"/>
</svg>
