<svg width="24" height="21" viewBox="0 0 24 21" fill="none" xmlns="http://www.w3.org/2000/svg">
<g clip-path="url(#clip0_81_55)">
<path d="M12.84 1.635L15.5657 6.45C15.6277 6.57221 15.7252 6.67807 15.8486 6.75703C15.9719 6.83599 16.1167 6.88528 16.2686 6.9L22.2857 7.68C22.4599 7.6996 22.6242 7.76216 22.7593 7.86038C22.8944 7.95861 22.9948 8.08844 23.0487 8.23472C23.1026 8.381 23.1079 8.53768 23.0639 8.68647C23.0198 8.83526 22.9283 8.97002 22.8 9.075L18.4629 12.84C18.3522 12.9305 18.2691 13.0438 18.2212 13.1695C18.1733 13.2953 18.1621 13.4295 18.1886 13.56L19.2343 18.855C19.2646 19.0071 19.2454 19.1637 19.1791 19.3068C19.1127 19.4499 19.0017 19.5738 18.8588 19.6645C18.7159 19.7551 18.5468 19.8088 18.3708 19.8195C18.1947 19.8302 18.0187 19.7975 17.8629 19.725L12.4457 17.22C12.307 17.1604 12.1545 17.1294 12 17.1294C11.8455 17.1294 11.693 17.1604 11.5543 17.22L6.13715 19.725C5.9813 19.7975 5.80532 19.8302 5.62925 19.8195C5.45317 19.8088 5.28407 19.7551 5.14117 19.6645C4.99828 19.5738 4.88733 19.4499 4.82095 19.3068C4.75458 19.1637 4.73544 19.0071 4.76572 18.855L5.81143 13.5C5.83794 13.3695 5.82673 13.2353 5.77882 13.1095C5.73092 12.9838 5.64784 12.8705 5.53715 12.78L1.14858 9.075C1.01874 8.96715 0.927433 8.82866 0.885714 8.67632C0.843996 8.52399 0.853656 8.36433 0.913525 8.2167C0.973394 8.06907 1.0809 7.93979 1.22303 7.84454C1.36515 7.74928 1.5358 7.69213 1.71429 7.68L7.73143 6.9C7.88332 6.88528 8.02813 6.83599 8.15146 6.75703C8.27478 6.67807 8.3723 6.57221 8.43429 6.45L11.16 1.635C11.2342 1.49476 11.3528 1.37603 11.5016 1.29283C11.6504 1.20962 11.8234 1.16541 12 1.16541C12.1766 1.16541 12.3496 1.20962 12.4984 1.29283C12.6472 1.37603 12.7658 1.49476 12.84 1.635Z" stroke="black" stroke-linecap="round" stroke-linejoin="round"/>
</g>
<defs>
<clipPath id="clip0_81_55">
<rect width="24" height="21" fill="white"/>
</clipPath>
</defs>
</svg>
