<svg width="24" height="22" viewBox="0 0 24 22" fill="none" xmlns="http://www.w3.org/2000/svg">
<path d="M14.5165 14H18.5165L21.5165 21H1.51648L4.51648 14H8.51648M12.5165 7C12.5165 7.26522 12.4111 7.51957 12.2236 7.70711C12.036 7.89464 11.7817 8 11.5165 8C11.2513 8 10.9969 7.89464 10.8094 7.70711C10.6218 7.51957 10.5165 7.26522 10.5165 7C10.5165 6.73478 10.6218 6.48043 10.8094 6.29289C10.9969 6.10536 11.2513 6 11.5165 6C11.7817 6 12.036 6.10536 12.2236 6.29289C12.4111 6.48043 12.5165 6.73478 12.5165 7ZM5.51648 7C5.51648 12 11.5165 17 11.5165 17C11.5165 17 17.5165 12 17.5165 7C17.5165 3.583 14.8305 1 11.5165 1C8.20248 1 5.51648 3.583 5.51648 7Z" stroke="white" stroke-width="2"/>
</svg>
