<svg width="50" height="50" viewBox="0 0 50 50" fill="none" xmlns="http://www.w3.org/2000/svg">
<path d="M4.36352 23.0969C4.33855 22.8092 4.37364 22.5195 4.46656 22.2462C4.55949 21.9728 4.70823 21.7217 4.90334 21.5089C5.09845 21.296 5.33567 21.1261 5.59994 21.0098C5.86422 20.8935 6.14979 20.8334 6.43852 20.8333H10.4166C10.9692 20.8333 11.4991 21.0528 11.8898 21.4435C12.2805 21.8342 12.5 22.3641 12.5 22.9167V42.7083C12.5 43.2609 12.2805 43.7908 11.8898 44.1815C11.4991 44.5722 10.9692 44.7917 10.4166 44.7917H8.1604C7.63897 44.7918 7.13645 44.5964 6.75209 44.244C6.36772 43.8917 6.12946 43.408 6.08435 42.8885L4.36352 23.0969ZM18.75 22.2656C18.75 21.3948 19.2916 20.6156 20.0781 20.2448C21.7958 19.4344 24.7219 17.8063 26.0416 15.6052C27.7427 12.7677 28.0635 7.64167 28.1156 6.46771C28.1229 6.30313 28.1187 6.13855 28.1406 5.97605C28.4229 3.94167 32.3489 6.31771 33.8541 8.83021C34.6719 10.1927 34.776 11.9833 34.6906 13.3823C34.5979 14.8781 34.1594 16.3229 33.7291 17.7583L32.8125 20.8177H44.1219C44.4437 20.8177 44.7612 20.8923 45.0495 21.0356C45.3377 21.1789 45.5888 21.387 45.7831 21.6436C45.9773 21.9003 46.1095 22.1984 46.1692 22.5148C46.2289 22.8311 46.2145 23.1569 46.1271 23.4667L40.5333 43.275C40.4098 43.7119 40.147 44.0965 39.7849 44.3702C39.4227 44.644 38.9811 44.792 38.5271 44.7917H20.8333C20.2808 44.7917 19.7509 44.5722 19.3602 44.1815C18.9695 43.7908 18.75 43.2609 18.75 42.7083V22.2656Z" stroke="white" stroke-width="4" stroke-linecap="round" stroke-linejoin="round"/>
</svg>
