<svg width="25" height="22" viewBox="0 0 25 22" fill="none" xmlns="http://www.w3.org/2000/svg">
<path d="M21.4887 5.375H3.08271C2.48474 5.375 2 5.87868 2 6.5V18.875C2 19.4963 2.48474 20 3.08271 20H21.4887C22.0867 20 22.5714 19.4963 22.5714 18.875V6.5C22.5714 5.87868 22.0867 5.375 21.4887 5.375Z" fill="#2F88FF" stroke="black" stroke-width="4" stroke-linecap="round" stroke-linejoin="round"/>
<path d="M22.5714 9.3125H12.827V15.5H22.5714V9.3125Z" stroke="white" stroke-width="4" stroke-linecap="round" stroke-linejoin="round"/>
<path d="M22.5714 8.1875V16.625" stroke="black" stroke-width="4" stroke-linecap="round" stroke-linejoin="round"/>
<path d="M16.6165 5.375C16.6165 2.5625 14.7218 2 13.9097 2C12.1052 2 8.00899 2 6.06011 2C4.11124 2 3.62402 3.61194 3.62402 4.41791V5.375" stroke="black" stroke-width="4" stroke-linecap="round" stroke-linejoin="round"/>
<path d="M17.4286 13.25C17.8771 13.25 18.2406 12.8722 18.2406 12.4062C18.2406 11.9403 17.8771 11.5625 17.4286 11.5625C16.9801 11.5625 16.6166 11.9403 16.6166 12.4062C16.6166 12.8722 16.9801 13.25 17.4286 13.25Z" fill="white"/>
</svg>
