<svg width="15" height="15" viewBox="0 0 15 15" fill="none" xmlns="http://www.w3.org/2000/svg">
<g clip-path="url(#clip0_118_118)">
<path fill-rule="evenodd" clip-rule="evenodd" d="M11.875 3.11807V3.74995C12.2065 3.74995 12.5245 3.88165 12.7589 4.11607C12.9933 4.35049 13.125 4.66843 13.125 4.99995V11.2499C13.125 11.5815 12.9933 11.8994 12.7589 12.1338C12.5245 12.3683 12.2065 12.4999 11.875 12.4999H3.125C2.79348 12.4999 2.47554 12.3683 2.24112 12.1338C2.0067 11.8994 1.875 11.5815 1.875 11.2499V4.99995C1.875 4.34682 2.39688 3.75432 3.00813 3.57995L9.88313 1.61557C10.1157 1.54911 10.3605 1.53754 10.5983 1.58178C10.8361 1.62602 11.0603 1.72485 11.2534 1.87051C11.4465 2.01616 11.6032 2.20466 11.711 2.42114C11.8189 2.63763 11.875 2.8762 11.875 3.11807ZM9.6875 7.18745C9.43886 7.18745 9.2004 7.28622 9.02459 7.46204C8.84877 7.63785 8.75 7.87631 8.75 8.12495C8.75 8.37359 8.84877 8.61205 9.02459 8.78786C9.2004 8.96368 9.43886 9.06245 9.6875 9.06245C9.93614 9.06245 10.1746 8.96368 10.3504 8.78786C10.5262 8.61205 10.625 8.37359 10.625 8.12495C10.625 7.87631 10.5262 7.63785 10.3504 7.46204C10.1746 7.28622 9.93614 7.18745 9.6875 7.18745ZM10.625 3.11807C10.625 3.07396 10.6157 3.03033 10.5977 2.99007C10.5796 2.94981 10.5533 2.91382 10.5203 2.88448C10.4874 2.85514 10.4486 2.8331 10.4065 2.81983C10.3645 2.80655 10.3201 2.80233 10.2762 2.80745L10.2262 2.81745L6.9625 3.74995H10.625V3.11807Z" fill="black"/>
</g>
<defs>
<clipPath id="clip0_118_118">
<rect width="15" height="15" fill="white"/>
</clipPath>
</defs>
</svg>
