<svg width="24" height="21" viewBox="0 0 24 21" fill="none" xmlns="http://www.w3.org/2000/svg">
<path d="M18.857 8.25H5.14275C4.19598 8.25 3.42847 8.92157 3.42847 9.75V18.75C3.42847 19.5784 4.19598 20.25 5.14275 20.25H18.857C19.8038 20.25 20.5713 19.5784 20.5713 18.75V9.75C20.5713 8.92157 19.8038 8.25 18.857 8.25Z" stroke="black" stroke-linecap="round" stroke-linejoin="round"/>
<path d="M18 8.25V6C18 4.60761 17.3679 3.27226 16.2426 2.28769C15.1174 1.30312 13.5913 0.75 12 0.75C10.4087 0.75 8.88258 1.30312 7.75736 2.28769C6.63214 3.27226 6 4.60761 6 6V8.25" stroke="black" stroke-linecap="round" stroke-linejoin="round"/>
<path d="M12 15C12.4734 15 12.8571 14.6642 12.8571 14.25C12.8571 13.8358 12.4734 13.5 12 13.5C11.5266 13.5 11.1428 13.8358 11.1428 14.25C11.1428 14.6642 11.5266 15 12 15Z" stroke="black" stroke-linecap="round" stroke-linejoin="round"/>
</svg>
