<svg width="24" height="24" viewBox="0 0 24 24" fill="none" xmlns="http://www.w3.org/2000/svg">
<path d="M6 4H22C22.5304 4 23.0391 4.21071 23.4142 4.58579C23.7893 4.96086 24 5.46957 24 6V18C24 18.5304 23.7893 19.0391 23.4142 19.4142C23.0391 19.7893 22.5304 20 22 20H15.9L12.2 23.71C12 23.9 11.75 24 11.5 24H11C10.7348 24 10.4804 23.8946 10.2929 23.7071C10.1054 23.5196 10 23.2652 10 23V20H6C5.46957 20 4.96086 19.7893 4.58579 19.4142C4.21071 19.0391 4 18.5304 4 18V6C4 5.46957 4.21071 4.96086 4.58579 4.58579C4.96086 4.21071 5.46957 4 6 4ZM14.19 7.5C13.3 7.5 12.59 7.68 12.05 8.04C11.5 8.4 11.22 9 11.27 9.69H13.24C13.24 9.41 13.34 9.2 13.5 9.06C13.7 8.92 13.92 8.85 14.19 8.85C14.5 8.85 14.77 8.93 14.95 9.11C15.13 9.28 15.22 9.5 15.22 9.8C15.22 10.08 15.14 10.33 15 10.54C14.83 10.76 14.62 10.94 14.36 11.08C13.84 11.4 13.5 11.68 13.29 11.92C13.1 12.16 13 12.5 13 13H15C15 12.72 15.05 12.5 15.14 12.32C15.23 12.15 15.4 12 15.66 11.85C16.12 11.64 16.5 11.36 16.79 11C17.08 10.63 17.23 10.24 17.23 9.8C17.23 9.1 16.96 8.54 16.42 8.12C15.88 7.71 15.13 7.5 14.19 7.5ZM13 14V16H15V14H13Z" fill="black"/>
</svg>
